<svg xmlns="http://www.w3.org/2000/svg" viewBox="0 0 24 24" width="24" height="24">
  <!-- Coffee cup body -->
  <path d="M6 7h10v9a3 3 0 0 1-3 3H9a3 3 0 0 1-3-3V7z" fill="#e0e0e0" stroke="#e0e0e0" stroke-width="1.5" stroke-linejoin="round"/>
  <!-- Handle -->
  <path d="M16 9h1.5a2 2 0 0 1 0 4H16" fill="none" stroke="#e0e0e0" stroke-width="1.5" stroke-linecap="round" stroke-linejoin="round"/>
  <!-- Saucer -->
  <path d="M4 20h14" stroke="#e0e0e0" stroke-width="1.5" stroke-linecap="round"/>
  <!-- Steam lines -->
  <path d="M8.5 4.5c0-1 1-1.5 1-2.5" stroke="#e0e0e0" stroke-width="1.2" stroke-linecap="round" fill="none"/>
  <path d="M11 4.5c0-1 1-1.5 1-2.5" stroke="#e0e0e0" stroke-width="1.2" stroke-linecap="round" fill="none"/>
  <path d="M13.5 4.5c0-1 1-1.5 1-2.5" stroke="#e0e0e0" stroke-width="1.2" stroke-linecap="round" fill="none"/>
</svg>
